HIERARCHY
ROOT Hips
{
	OFFSET -0.001795 -0.223333 0.028219
	CHANNELS 6 Xposition Yposition Zposition Zrotation Yrotation Xrotation 
	JOINT LeftUpLeg
	{
		OFFSET 0.069520 -0.091406 -0.006815
		CHANNELS 3 Zrotation Yrotation Xrotation
		JOINT LeftLeg
		{
			OFFSET 0.034277 -0.375199 -0.004496
			CHANNELS 3 Zrotation Yrotation Xrotation
			JOINT LeftFoot
			{
				OFFSET -0.013596 -0.397961 -0.043693
				CHANNELS 3 Zrotation Yrotation Xrotation
				JOINT LeftToe
				{
					OFFSET 0.026358 -0.055791 0.119288
					CHANNELS 3 Zrotation Yrotation Xrotation
					End Site
					{
						OFFSET 0.000000 0.000000 0.000000
					}
				}
			}
		}
	}
	JOINT RightUpLeg
	{
		OFFSET -0.067670 -0.090522 -0.004320
		CHANNELS 3 Zrotation Yrotation Xrotation
		JOINT RightLeg
		{
			OFFSET -0.038290 -0.382569 -0.008850
			CHANNELS 3 Zrotation Yrotation Xrotation
			JOINT RightFoot
			{
				OFFSET 0.015774 -0.398415 -0.042312
				CHANNELS 3 Zrotation Yrotation Xrotation
				JOINT RightToe
				{
					OFFSET -0.025372 -0.048144 0.123348
					CHANNELS 3 Zrotation Yrotation Xrotation
					End Site
					{
						OFFSET 0.000000 0.000000 0.000000
					}
				}
			}
		}
	}
	JOINT Spine
	{
		OFFSET -0.002533 0.108963 -0.026696
		CHANNELS 3 Zrotation Yrotation Xrotation
		JOINT Spine1
		{
			OFFSET 0.005487 0.135180 0.001092
			CHANNELS 3 Zrotation Yrotation Xrotation
			JOINT Spine2
			{
				OFFSET 0.001457 0.052922 0.025425
				CHANNELS 3 Zrotation Yrotation Xrotation
				JOINT Neck
				{
					OFFSET -0.002778 0.213870 -0.042857
					CHANNELS 3 Zrotation Yrotation Xrotation
					JOINT Head
					{
						OFFSET 0.005152 0.064970 0.051349
						CHANNELS 3 Zrotation Yrotation Xrotation
						End Site
						{
							OFFSET 0.000000 0.000000 0.000000
						}
					}
				}
				JOINT LeftShoulder
				{
					OFFSET 0.078845 0.121749 -0.034090
					CHANNELS 3 Zrotation Yrotation Xrotation
					JOINT LeftArm
					{
						OFFSET 0.090977 0.030469 -0.008868
						CHANNELS 3 Zrotation Yrotation Xrotation
						JOINT LeftForeArm
						{
							OFFSET 0.259612 -0.012772 -0.027456
							CHANNELS 3 Zrotation Yrotation Xrotation
							JOINT LeftHand
							{
								OFFSET 0.249234 0.008986 -0.001171
								CHANNELS 3 Zrotation Yrotation Xrotation
								End Site
								{
									OFFSET 0.000000 0.000000 0.000000
								}
							}
						}
					}
				}
				JOINT RightShoulder
				{
					OFFSET -0.081759 0.118833 -0.038615
					CHANNELS 3 Zrotation Yrotation Xrotation
					JOINT RightArm
					{
						OFFSET -0.096012 0.032551 -0.009143
						CHANNELS 3 Zrotation Yrotation Xrotation
						JOINT RightForeArm
						{
							OFFSET -0.253742 -0.013329 -0.021401
							CHANNELS 3 Zrotation Yrotation Xrotation
							JOINT RightHand
							{
								OFFSET -0.255298 0.007772 -0.005559
								CHANNELS 3 Zrotation Yrotation Xrotation
								End Site
								{
									OFFSET 0.000000 0.000000 0.000000
								}
							}
						}
					}
				}
			}
		}
	}
}
MOTION
Frames: 13
Frame Time: 0.050000
0.142279 0.804129 0.788568 -2.376947 -4.327042 -15.420519 3.337434 -0.581904 -11.350978 -3.848535 1.039678 40.339248 11.078161 27.201918 -30.949531 0.000000 0.000000 0.000000 5.664316 3.108390 -19.353946 1.916398 1.998953 48.216761 -7.401338 -14.001296 -22.058709 0.000000 0.000000 0.000000 5.174625 -2.088272 30.361190 -4.039677 2.275357 6.221677 -2.628169 7.253496 7.570947 10.886870 -6.399235 -10.827184 0.000000 0.000000 0.000000 -24.246952 -6.973482 -0.334863 -51.423769 7.306085 -9.106541 -27.611027 -69.750918 20.982640 0.000000 0.000000 0.000000 26.329051 0.256229 -0.296484 51.745249 -7.712425 -9.174322 36.082854 66.188293 28.367786 0.000000 0.000000 0.000000 
0.144586 0.820205 0.797756 -2.049563 -5.340501 -13.821079 2.711874 -0.610868 -10.568126 -3.509367 1.009083 36.730931 11.260095 27.643960 -26.917127 0.000000 0.000000 0.000000 5.700679 3.083816 -19.181704 0.795088 2.709729 45.612329 -6.856249 -12.258266 -18.636780 0.000000 0.000000 0.000000 5.353507 -1.996461 29.538437 -4.783289 2.717220 6.127507 -2.625589 6.230977 8.025550 10.377356 -6.250388 -10.350645 0.000000 0.000000 0.000000 -21.744437 0.673738 -3.724205 -52.273396 17.613275 -13.969688 -27.368033 -55.535158 16.250934 0.000000 0.000000 0.000000 21.183047 -6.975329 -4.623787 53.428180 -21.602228 -15.034168 37.018637 50.920854 20.895543 0.000000 0.000000 0.000000 
0.147707 0.840243 0.804452 -1.545538 -5.744593 -11.932865 1.655786 -0.701830 -9.982508 -3.007205 0.759038 32.187188 11.530834 27.375319 -21.041461 0.000000 0.000000 0.000000 5.925287 3.122119 -19.286356 -1.412082 3.684607 42.496828 -5.967674 -10.727129 -13.387254 0.000000 0.000000 0.000000 5.850629 -2.040261 28.648229 -4.782323 2.675538 5.489227 -3.214889 5.248986 8.799086 10.280870 -6.983053 -7.361663 0.000000 0.000000 0.000000 -17.448171 7.732104 -6.181815 -50.664083 29.088664 -18.408513 -33.732360 -48.489022 17.288312 0.000000 0.000000 0.000000 18.050033 -13.451874 -7.905681 49.774420 -32.391181 -17.966186 36.615683 41.812210 16.217999 0.000000 0.000000 0.000000 
0.151284 0.851889 0.806805 -1.732104 -5.939491 -10.593949 1.033947 -0.789373 -10.202665 -1.992785 0.320029 29.964238 11.732766 27.121565 -17.234558 0.000000 0.000000 0.000000 6.082016 3.447523 -21.010911 -1.846854 3.962039 42.733918 -5.119341 -10.155812 -7.855011 0.000000 0.000000 0.000000 6.187015 -2.182985 29.434558 -4.890220 2.682195 4.566041 -2.677870 6.361845 9.245120 10.132207 -6.772949 -7.486663 0.000000 0.000000 0.000000 -14.413755 12.153586 -7.683398 -42.710797 35.252484 -17.351666 -39.216161 -41.629759 16.693781 0.000000 0.000000 0.000000 12.956007 -20.434099 -10.213535 44.770462 -40.269669 -18.291755 34.325688 34.276124 12.220010 0.000000 0.000000 0.000000 
0.154940 0.850251 0.804647 -1.585672 -5.880985 -9.066734 1.305623 -1.004850 -13.637662 -3.147203 0.869090 32.533348 11.948331 27.239383 -15.977279 0.000000 0.000000 0.000000 5.867091 3.982023 -24.283468 -2.055617 4.332378 45.006999 -4.962304 -10.480128 -5.883563 0.000000 0.000000 0.000000 6.112814 -2.325413 31.351489 -4.405639 2.346419 3.524324 -3.178153 6.034342 9.370138 10.157888 -6.558915 -8.489062 0.000000 0.000000 0.000000 -11.218911 15.121553 -8.084854 -36.929852 35.860744 -14.900754 -38.103179 -35.265394 13.508320 0.000000 0.000000 0.000000 8.675782 -23.454176 -10.520108 39.056968 -43.030762 -16.238371 34.416189 29.497424 10.290293 0.000000 0.000000 0.000000 
0.158689 0.829216 0.800196 -1.452832 -5.280194 -8.950863 1.988089 -1.194860 -18.068668 -5.112839 1.977356 39.570068 12.028954 27.956351 -19.777589 0.000000 0.000000 0.000000 5.549201 4.673417 -28.552688 -1.482576 4.646334 51.664880 -5.688404 -12.334610 -7.060481 0.000000 0.000000 0.000000 6.277437 -2.656504 34.610497 -4.356910 2.282804 2.749938 -3.503371 7.065513 8.916305 11.431205 -6.925786 -10.411424 0.000000 0.000000 0.000000 -9.748437 12.693668 -6.738104 -34.650330 34.708419 -13.645220 -34.456075 -31.985429 10.836664 0.000000 0.000000 0.000000 8.000143 -24.699583 -10.840564 35.758172 -43.771986 -14.550381 34.360242 28.078647 9.842297 0.000000 0.000000 0.000000 
0.162028 0.798511 0.796094 -1.207949 -5.117589 -8.967949 3.144898 -1.232006 -23.008605 -7.825258 3.994737 47.817187 12.104795 29.361453 -25.056134 0.000000 0.000000 0.000000 5.187376 5.427844 -33.109532 -0.687013 4.927283 59.173048 -6.588777 -14.347959 -10.494218 0.000000 0.000000 0.000000 6.290343 -2.945873 38.471608 -4.073203 2.085470 1.452046 -4.013259 6.755409 8.619396 11.828457 -6.772780 -12.228466 0.000000 0.000000 0.000000 -11.577562 9.728554 -5.968626 -34.128804 33.204003 -12.943335 -30.095804 -31.592357 9.424299 0.000000 0.000000 0.000000 10.021070 -22.736961 -10.481201 34.705542 -41.424927 -13.589488 34.218003 31.347069 11.063062 0.000000 0.000000 0.000000 
0.164712 0.767374 0.795082 -0.807049 -4.496479 -9.048874 3.421328 -1.384349 -27.067119 -9.491918 5.577019 54.985211 12.011092 30.655634 -30.517682 0.000000 0.000000 0.000000 4.486396 5.734011 -36.197373 -0.062038 4.887716 65.009344 -7.478340 -16.495317 -16.398404 0.000000 0.000000 0.000000 5.547514 -2.968493 41.189949 -3.641290 1.885818 2.496729 -4.066709 5.960940 5.700618 11.590122 -6.121406 -13.832195 0.000000 0.000000 0.000000 -12.395510 6.537911 -4.774700 -36.619917 31.227003 -13.227088 -26.679875 -33.090112 8.866421 0.000000 0.000000 0.000000 13.476272 -18.992834 -9.584820 36.420208 -36.378444 -13.132496 33.616210 37.813372 13.353972 0.000000 0.000000 0.000000 
0.166439 0.742503 0.798320 -0.379328 -4.359682 -9.907393 3.504998 -1.461342 -29.210793 -10.603560 7.022421 60.822851 11.988409 31.960146 -33.910934 0.000000 0.000000 0.000000 4.023582 5.979682 -38.359165 0.645944 4.860377 70.829591 -7.900755 -18.030737 -19.096833 0.000000 0.000000 0.000000 5.091895 -2.921122 43.078237 -3.009501 1.533832 1.558865 -4.075985 5.860427 5.591892 9.850958 -4.696931 -15.060515 0.000000 0.000000 0.000000 -16.018756 2.875528 -3.895908 -40.202340 26.769006 -13.175338 -20.698700 -36.617788 7.870348 0.000000 0.000000 0.000000 16.831282 -14.945870 -8.250960 40.238235 -28.429291 -12.611861 31.319747 44.654416 15.200335 0.000000 0.000000 0.000000 
0.167401 0.728696 0.806128 -0.370904 -3.614023 -11.419396 3.457545 -1.540588 -29.322292 -11.031542 7.546044 64.849964 12.031412 32.395377 -34.971515 0.000000 0.000000 0.000000 3.672226 5.723780 -38.055224 1.311163 4.258466 74.300255 -8.174719 -19.296531 -20.377418 0.000000 0.000000 0.000000 4.918014 -3.039469 44.201405 -2.307712 1.166298 1.053675 -3.748321 5.078814 5.592665 9.442858 -4.227002 -16.446437 0.000000 0.000000 0.000000 -18.885780 -1.189176 -2.317203 -43.436765 20.794351 -12.256701 -13.732634 -39.215780 6.015254 0.000000 0.000000 0.000000 18.936095 -8.279588 -5.155600 43.690598 -19.385993 -11.085227 22.117086 50.854041 13.084894 0.000000 0.000000 0.000000 
0.167503 0.726876 0.818091 -0.307575 -3.644299 -12.506654 3.894200 -1.318431 -27.234225 -11.825441 8.222027 65.085706 11.877967 32.369473 -36.311597 0.000000 0.000000 0.000000 3.301199 5.377256 -36.686501 2.068402 3.708314 75.468036 -8.223375 -19.526138 -20.434106 0.000000 0.000000 0.000000 5.162407 -3.024271 43.127740 -1.829098 0.918354 -0.096223 -4.353494 6.120689 5.947846 9.164370 -4.156901 -15.444520 0.000000 0.000000 0.000000 -19.175490 -3.408398 -1.487646 -42.837967 13.746138 -9.617999 -10.300711 -41.415980 4.898077 0.000000 0.000000 0.000000 19.769380 -5.187079 -3.318715 43.720413 -10.540089 -8.331196 14.660635 55.522416 10.836521 0.000000 0.000000 0.000000 
0.166856 0.740222 0.834242 -0.298530 -3.426588 -13.804695 4.797911 -0.940458 -23.508175 -13.038662 8.702829 62.807687 11.957009 31.090828 -33.840128 0.000000 0.000000 0.000000 2.988067 4.670800 -33.084159 2.341492 3.287717 73.717783 -8.086030 -18.941602 -18.718122 0.000000 0.000000 0.000000 5.217422 -2.848863 40.200050 -1.061676 0.527963 -0.135689 -5.236464 6.669363 6.798136 9.711523 -5.102561 -12.600633 0.000000 0.000000 0.000000 -17.510899 -4.360598 -0.906870 -41.243371 8.140535 -7.419151 -6.891414 -42.956023 3.605021 0.000000 0.000000 0.000000 18.846041 -2.963610 -1.851540 43.108524 -3.522336 -6.061598 3.200682 56.524153 5.213920 0.000000 0.000000 0.000000 
0.165920 0.767774 0.853866 -0.582087 -2.965595 -14.226953 4.931545 -0.684221 -17.606620 -12.931730 7.412393 56.012388 11.662368 28.996792 -32.538110 0.000000 0.000000 0.000000 2.577905 3.716601 -27.868470 2.375734 2.691220 68.089453 -7.748055 -17.575135 -17.031537 0.000000 0.000000 0.000000 5.369141 -2.614134 35.490791 -1.568743 0.792645 -0.098481 -4.706389 6.579365 8.545617 9.897626 -6.092503 -9.236356 0.000000 0.000000 0.000000 -14.164351 -3.362768 -0.788383 -40.477120 7.438208 -7.268521 -5.013516 -44.475875 3.001557 0.000000 0.000000 0.000000 17.880528 -3.576088 -2.103753 40.447215 -3.301045 -5.735016 2.588587 54.687712 4.668018 0.000000 0.000000 0.000000 
